<?xml version="1.0" encoding="UTF-8"?>
<svg id="Layer_1" data-name="Layer 1" xmlns="http://www.w3.org/2000/svg" version="1.1" viewBox="0 0 300 120">
  <defs>
    <style>
      .cls-1 {
        fill: #f2f2f2;
        stroke-width: 0px;
      }
    </style>
  </defs>
  <path class="cls-1" d="M152.6,49.7v6.9h-15.5v-6.9c0-.3-.2-.5-.6-.5h-2.8c-.3,0-.6.2-.6.5v17.8c0,.3.2.5.6.5h2.8c.3,0,.6-.2.6-.5v-7.1h15.5v7.1c0,.3.2.5.6.5h2.8c.3,0,.6-.2.6-.5v-17.8c0-.3-.2-.5-.6-.5h-2.8c-.3,0-.6.2-.6.5Z"/>
  <path class="cls-1" d="M190,49.1h-2.9c-.3,0-.6.2-.6.5v17.8c0,.3.2.5.6.5h2.9c.3,0,.6-.2.6-.5v-17.8c0-.3-.2-.5-.6-.5Z"/>
  <path class="cls-1" d="M182,64.1h-13.7c-1.4,0-2.5-1.1-2.5-2.5v-11.9c0-.3-.2-.5-.6-.5h-2.9c-.3,0-.6.2-.6.5v11.6c0,3.7,3.1,6.7,6.8,6.7h13.5c.3,0,.6-.2.6-.5v-2.9c0-.3-.2-.5-.6-.5h0Z"/>
  <path class="cls-1" d="M104,67.9h3.2c.2,0,.4-.1.5-.3l7.1-14c.6-1.2,2.4-1.2,3,0l7.5,13.8c0,.2.3.3.5.3h2.8c.4,0,.7-.5.5-.9l-7.4-14.5c-2.2-4.3-8.5-4.3-10.7,0l-7.5,14.8c-.2.4,0,.8.5.8h0Z"/>
  <path class="cls-1" d="M195.2,67.9h3.2c.2,0,.4-.1.5-.3l7.1-14c.6-1.2,2.4-1.2,3,0l7.5,13.8c0,.2.3.3.5.3h2.8c.4,0,.7-.5.5-.9l-7.4-14.5c-2.2-4.3-8.5-4.3-10.7,0l-7.5,14.8c-.2.4,0,.8.5.8h0Z"/>
  <path class="cls-1" d="M93.5,49.2h-16v3.8h16c1.9,0,3.4,1.5,3.4,3.4v4.3c0,1.9-1.5,3.4-3.4,3.4h-12.2v-7.3h-3.8v11h16c4,0,7.3-3.2,7.3-7.1v-4.3c0-3.9-3.3-7.1-7.3-7.1Z"/>
</svg>