<svg width="300" height="120" viewBox="0 0 300 120" fill="none" xmlns="http://www.w3.org/2000/svg">
<path d="M95.6625 68.0243C93.7261 67.1659 92.2624 65.4244 91.7835 63.3091H108.045C108.121 62.817 108.16 62.3126 108.16 61.7995C108.16 56.3751 103.783 51.9781 98.3823 51.9781C92.982 51.9781 88.6045 56.3751 88.6045 61.7995C88.6045 64.1626 89.4358 66.3297 90.8196 68.0243H95.6625ZM98.3823 54.9974C101.599 54.9974 104.295 57.2644 104.981 60.2898H91.7835C92.4699 57.2644 95.1652 54.9974 98.3823 54.9974Z" fill="#F2F2F2"/>
<path d="M114.197 68.0242V61.0643C114.197 57.2742 116.104 55.0319 119.066 55.0319C121.623 55.0319 123.124 56.6624 123.124 59.5966V68.023H126.533V61.0631C126.533 57.2729 128.399 55.0306 131.402 55.0306C133.918 55.0306 135.46 56.6612 135.46 59.5954V68.0218H138.869V58.6999C138.869 54.9912 136.069 51.9756 132.174 51.9756C128.279 51.9756 126.793 53.1522 125.454 55.1491C124.439 53.1522 122.336 51.9756 120.041 51.9756C117.485 51.9756 115.508 52.7785 114.199 54.7346V52.4652H110.79V68.0242H114.199H114.197Z" fill="#F2F2F2"/>
<path d="M148.794 68.0243C146.857 67.1659 145.394 65.4244 144.915 63.3091H161.176C161.252 62.817 161.291 62.3126 161.291 61.7995C161.29 56.3751 156.913 51.9781 151.512 51.9781C146.112 51.9781 141.734 56.3751 141.734 61.7995C141.734 64.1626 142.566 66.3297 143.95 68.0243H148.792H148.794ZM151.512 54.9974C154.729 54.9974 157.425 57.2644 158.111 60.2898H144.915C145.601 57.2644 148.296 54.9974 151.513 54.9974H151.512Z" fill="#F2F2F2"/>
<path d="M167.549 68.0242V61.8389C167.549 58.4964 169.173 55.3587 172.013 55.3587C172.732 55.3587 173.404 55.5647 174.039 55.8262C174.279 54.689 174.724 53.8454 175.48 52.9018C174.693 52.4344 173.691 51.9756 172.533 51.9756C170.058 51.9756 168.483 53.3693 167.549 55.4475V52.4652H164.141V68.0242H167.549Z" fill="#F2F2F2"/>
<path d="M186.137 66.1187C186.137 66.8994 185.891 67.5358 185.492 68.0242H189.034C189.309 67.3409 189.465 66.6046 189.465 65.8325C189.465 58.9848 179.726 61.512 179.726 57.437C179.726 55.8471 181.064 54.8691 182.566 54.8691C184.23 54.8691 185.406 55.725 185.975 57.437L189.018 56.2147C188.206 53.891 185.975 51.9756 182.728 51.9756C179.158 51.9756 176.479 54.4621 176.479 57.6812C176.479 64.4055 186.137 61.8389 186.137 66.1174V66.1187Z" fill="#F2F2F2"/>
<path d="M198.898 68.0243C196.962 67.1659 195.498 65.4244 195.019 63.3091H211.28C211.356 62.817 211.396 62.3126 211.396 61.7995C211.395 56.3751 207.017 51.9781 201.617 51.9781C196.216 51.9781 191.839 56.3751 191.839 61.7995C191.839 64.1626 192.67 66.3297 194.054 68.0243H198.897H198.898ZM201.617 54.9974C204.834 54.9974 207.529 57.2644 208.215 60.2898H195.019C195.706 57.2644 198.401 54.9974 201.618 54.9974H201.617Z" fill="#F2F2F2"/>
</svg>
