<?xml version="1.0" encoding="UTF-8"?>
<svg id="Ebene_1" data-name="Ebene 1" xmlns="http://www.w3.org/2000/svg" version="1.1" viewBox="0 0 1060.4 130">
  <defs>
    <style>
      .cls-1 {
        fill: #fff;
        stroke-width: 0px;
      }
    </style>
  </defs>
  <path class="cls-1" d="M0,0h29.3l41.1,102h.2L111.9,0h29.3v125.6h-20.7V29.6h-.4l-39.4,95.9h-19.9L20.9,29.8h-.4v95.8H0V0Z"/>
  <path class="cls-1" d="M195.8,0h25.4l47.3,125.6h-22.5l-14.8-41.7-50.5,13.7-10.1,28h-22.7L195.8,0ZM226.1,68l-17.4-48.8h-.4l-22.1,60.3,39.9-11.5Z"/>
  <path class="cls-1" d="M275.3,0h37.1c21.2,0,37.5,5.4,48.9,16.3,11.5,10.9,17.2,26.4,17.2,46.5s-2.5,24.9-7.6,34.1c-5.1,9.3-12.6,16.4-22.5,21.3s-22,7.4-36.2,7.4h-36.9V0ZM312.2,107.6c9.6,0,17.8-1.8,24.6-5.3,6.8-3.5,11.9-8.6,15.4-15.3,3.5-6.6,5.2-14.7,5.1-24.3.1-14.4-3.7-25.5-11.5-33.2s-19-11.5-33.5-11.5h-15.8v89.6s15.7,0,15.7,0Z"/>
  <path class="cls-1" d="M389.2,0h86.7v18.1h-66.1v35.7h59.1v17.9h-59.1v35.9h67.9v17.9h-88.5V0Z"/>
  <path class="cls-1" d="M487.7,0h82.1v18.4h-60.7v51.3h50v17.2h-50v38.7h-21.5V0h.1Z"/>
  <path class="cls-1" d="M604.1,123.3c-8-4.4-14.3-10.7-18.9-18.8-4.6-8.1-6.8-17.1-6.8-27V0h21.5v77.3c0,5.9,1.3,11.5,3.9,16.8,2.6,5.3,6.4,9.5,11.3,12.6,4.9,3.1,10.5,4.7,16.8,4.7s11.9-1.5,16.7-4.4c4.7-3,8.5-7,11.2-12.2s4.1-11.1,4.1-17.6V0h21.5v77.5c0,9.9-2.3,18.9-6.9,27-4.6,8.1-10.9,14.4-18.9,18.8s-17.2,6.6-27.6,6.6c-10.7,0-19.9-2.1-27.9-6.6Z"/>
  <path class="cls-1" d="M695.1,0h21.5v107.1h59.8v18.4h-81.2V0h0Z"/>
  <path class="cls-1" d="M776.3,15.9c0,8.9-6.5,15.4-15.4,15.4s-15.5-6.5-15.5-15.4,6.5-15.5,15.5-15.5c8.9,0,15.4,6.6,15.4,15.5ZM760.9,3.4c-7.2,0-12.4,5.3-12.4,12.5s5.2,12.4,12.4,12.4,12.3-5.3,12.3-12.4-5.2-12.5-12.3-12.5ZM766.8,24.4h-6.8c-3.5,0-5.5-2-5.5-4.9s.9-3.2,2.2-3.8c-1.3-.7-1.8-1.8-1.9-3.5l-.4-4.5h3l.4,4c0,1.5.7,2.1,2.2,2.1h3.7v-6h3.1v16.6ZM760.3,16.6c-2,0-2.7,1.2-2.7,2.5s.7,2.5,2.7,2.5h3.4v-5.1h-3.4Z"/>
  <g>
    <path class="cls-1" d="M835.9,0h7.1l9.9,24.6h0l10-24.6h7.1v30.3h-5V7.2h0l-9.5,23.2h-4.8l-9.6-23.1h0v23.1h-5V0h0Z"/>
    <path class="cls-1" d="M875,0h5.2v30.3h-5.2V0Z"/>
    <path class="cls-1" d="M885.2,0h6.3l14.1,23.8h0V0h5.1v30.3h-6.4l-14-23.7h0v23.7h-5V0h0Z"/>
    <path class="cls-1" d="M915.9,0h5.2v30.3h-5.2V0Z"/>
    <path class="cls-1" d="M926.1,0h7.1l9.9,24.6h0l10-24.6h7.1v30.3h-5V7.2h0l-9.5,23.2h-4.8l-9.6-23.1h-.2v23.1h-5V0h0Z"/>
    <path class="cls-1" d="M971,29.8c-1.9-1.1-3.5-2.6-4.6-4.5-1.1-2-1.7-4.1-1.7-6.5V0h5.2v18.7c0,1.4.3,2.8.9,4.1.6,1.3,1.5,2.3,2.7,3,1.2.8,2.5,1.1,4,1.1s2.9-.4,4-1.1,2-1.7,2.7-3,1-2.7,1-4.2V0h5.2v18.7c0,2.4-.6,4.6-1.7,6.5-1.1,2-2.6,3.5-4.6,4.5-1.9,1.1-4.2,1.6-6.7,1.6-2.2,0-4.4-.4-6.4-1.5Z"/>
    <path class="cls-1" d="M995.2,0h7.1l9.9,24.6h0l10-24.6h7.1v30.3h-5V7.2h0l-9.5,23.2h-4.8l-9.6-23.1h0v23.1h-5V0h0Z"/>
    <path class="cls-1" d="M833.7,47.7h5.4l9,25.2h0l8.8-25.2h5.4l-11.4,30.3h-6l-11.3-30.3Z"/>
    <path class="cls-1" d="M865.3,47.7h5.2v30.3h-5.2v-30.3Z"/>
    <path class="cls-1" d="M884.9,47.7h6.1l11.5,30.3h-5.5l-2.4-6.8h-13.4l-2.4,6.8h-5.5l11.6-30.3ZM893.3,67.1l-5.3-14.8h0l-5.4,14.8h10.8Z"/>
    <path class="cls-1" d="M905.4,47.7h14.5c2.1,0,3.9.3,5.4,1,1.5.6,2.6,1.6,3.4,2.8.8,1.2,1.2,2.8,1.2,4.6s-.2,2.1-.6,2.9c-.4.8-.9,1.6-1.6,2.2-.7.6-1.5,1-2.5,1.3h0c1.7.5,3.1,1.3,4,2.5.9,1.2,1.4,2.8,1.4,4.6s-.4,3.4-1.2,4.7c-.8,1.3-2,2.2-3.6,2.9-1.6.7-3.5,1-5.8,1h-14.7v-30.5h0ZM919.2,60.4c1.2,0,2.2-.2,3-.5s1.5-.8,1.9-1.5c.4-.6.6-1.4.6-2.3,0-1.4-.5-2.4-1.4-3.1-.9-.7-2.3-1.1-4.1-1.1h-8.7v8.5s8.7,0,8.7,0ZM919.2,73.8c1.4,0,2.5-.2,3.5-.6s1.7-.9,2.2-1.6.7-1.6.7-2.6c0-1.5-.5-2.6-1.7-3.4-1.1-.8-2.7-1.2-4.7-1.2h-8.7v9.3h8.7Z"/>
    <path class="cls-1" d="M934.4,47.7h5.2v25.9h14.3v4.4h-19.5v-30.3Z"/>
    <path class="cls-1" d="M956.9,47.7h21v4.3h-16v8.3h14.3v4.2h-14.3v9.2h16.4v4.3h-21.4v-30.3Z"/>
    <path class="cls-1" d="M835.9,95.3h14.5c2.1,0,3.9.3,5.4,1,1.5.6,2.6,1.6,3.4,2.8.8,1.2,1.2,2.8,1.2,4.6s-.2,2.1-.6,2.9c-.4.8-.9,1.6-1.6,2.2-.7.6-1.5,1-2.5,1.3h0c1.7.5,3.1,1.3,4,2.5.9,1.2,1.4,2.8,1.4,4.6s-.4,3.4-1.2,4.7c-.8,1.3-2,2.2-3.6,2.9-1.6.7-3.5,1-5.8,1h-14.7v-30.5h0ZM849.7,108.1c1.2,0,2.2-.2,3-.5s1.5-.8,1.9-1.5c.4-.6.6-1.4.6-2.3,0-1.4-.5-2.4-1.4-3.1s-2.3-1.1-4.1-1.1h-8.7v8.5h8.7ZM849.7,121.5c1.4,0,2.5-.2,3.5-.6s1.7-.9,2.2-1.6.7-1.6.7-2.6c0-1.5-.5-2.6-1.7-3.4-1.1-.8-2.7-1.2-4.7-1.2h-8.7v9.3h8.7Z"/>
    <path class="cls-1" d="M884.7,126c-.7-.3-1.3-.8-1.7-1.3-.5-.6-.8-1.2-1-2l-1.8-5.9c-.3-1-.8-1.8-1.6-2.4-.7-.6-1.5-1-2.4-1h-6.1v12.2h-5.2v-30.3h14c2.2,0,4.2.4,5.9,1.2,1.7.8,3,1.8,4,3.2,1,1.3,1.4,2.9,1.4,4.6s-.3,2.7-1,3.8c-.6,1.1-1.6,2.1-2.8,2.9s-2.6,1.3-4.3,1.5h0c.8.3,1.4.8,2,1.5.5.6.9,1.4,1.1,2.3l1.4,4.7c0,.5.4.9.7,1.2.3.3.7.5,1.1.5s.9-.2,1.4-.5.9-.8,1.2-1.4l1.9,2.7c-.7.9-1.6,1.7-2.6,2.2-1,.6-2.1.8-3.2.8-.9,0-1.7-.2-2.4-.5ZM878.7,109.3c1.2,0,2.3-.2,3.3-.6s1.7-1,2.3-1.7.9-1.6.9-2.5-.3-1.8-.9-2.6c-.6-.7-1.3-1.3-2.3-1.7-1-.4-2.1-.6-3.3-.6h-8.6v9.8h8.6Z"/>
    <path class="cls-1" d="M905.7,95.3h6.1l11.4,30.3h-5.4l-2.4-6.8h-13.4l-2.4,6.8h-5.5l11.6-30.3ZM914.1,114.8l-5.3-14.8h0l-5.4,14.8h10.8Z"/>
    <path class="cls-1" d="M926.1,95.3h6.3l14.1,23.8h0v-23.8h5.1v30.3h-6.4l-14-23.7h0v23.7h-5v-30.3h0Z"/>
    <path class="cls-1" d="M956.7,95.3h11.9c5.1,0,9.1,1.3,11.8,3.9,2.8,2.6,4.2,6.4,4.2,11.2s-.6,6-1.8,8.3c-1.2,2.2-3,4-5.4,5.1-2.4,1.2-5.3,1.8-8.7,1.8h-11.8v-30.3h-.2ZM968.5,121.3c2.3,0,4.3-.4,5.9-1.3,1.6-.9,2.9-2.1,3.7-3.7s1.3-3.6,1.2-5.9c0-3.5-.9-6.2-2.8-8-1.9-1.9-4.6-2.8-8.1-2.8h-6.7v21.6h6.8Z"/>
    <path class="cls-1" d="M988.6,95.3h5.2v30.3h-5.2v-30.3Z"/>
    <path class="cls-1" d="M998.8,95.3h6.3l14.1,23.8h0v-23.8h5.1v30.3h-6.4l-14-23.7h0v23.7h-5v-30.3h0Z"/>
    <path class="cls-1" d="M1035.9,124.6c-2.4-1.4-4.2-3.3-5.6-5.8s-2-5.3-2-8.3.7-5.9,2-8.4,3.2-4.4,5.7-5.8c2.4-1.4,5.1-2.1,8.1-2.1s4,.4,5.8,1.2c1.8.8,3.4,1.9,4.7,3.3,1.3,1.4,2.2,3,2.9,4.8l-4.7,1.3c-.4-1.1-1-2.2-1.9-3.2s-1.9-1.7-3.1-2.2-2.4-.8-3.7-.8c-2,0-3.8.5-5.5,1.5-1.6,1-2.9,2.4-3.8,4.2-.9,1.8-1.3,3.8-1.3,6s.5,4.3,1.4,6.1c1,1.8,2.3,3.2,4,4.2s3.7,1.5,5.8,1.5,3.7-.4,5.3-1.3c1.6-.8,2.9-2,3.8-3.4s1.4-3.1,1.5-4.8h-15v-4.1h20.2v17h-4l-.6-5.2h0c-.8,1.3-1.9,2.4-3.1,3.4s-2.6,1.7-4.1,2.2-3.1.7-4.8.7c-3,.1-5.6-.6-8-2Z"/>
  </g>
</svg>