<svg width="300" height="120" viewBox="0 0 300 120" fill="none" xmlns="http://www.w3.org/2000/svg">
<path d="M117.942 63.2122C115.053 63.2122 112.708 60.8677 112.708 57.9785C112.708 55.0893 115.053 52.7447 117.942 52.7447C120.831 52.7447 123.176 55.0893 123.176 57.9785C123.176 60.8677 120.831 63.2122 117.942 63.2122ZM113.816 67.2552C114.776 66.0276 116.271 65.2337 117.942 65.2337C119.622 65.2337 121.117 66.0276 122.068 67.2552H113.816ZM130.274 47.9264C127.985 45.6464 124.486 45.6464 118.2 45.6464C111.914 45.6464 108.416 45.6464 106.127 47.9264C103.847 50.2156 103.847 53.714 103.847 60C103.847 66.286 103.847 69.7844 106.127 72.0736C108.416 74.3535 111.914 74.3535 118.2 74.3535C124.486 74.3535 127.985 74.3535 130.274 72.0736C132.554 69.7844 132.554 66.286 132.554 60C132.554 53.714 132.554 50.2156 130.274 47.9264Z" fill="#F2F2F2"/>
<path d="M117.941 54.7663C116.168 54.7663 114.729 56.2063 114.729 57.9785C114.729 59.7508 116.168 61.1908 117.941 61.1908C119.713 61.1908 121.153 59.7508 121.153 57.9785C121.153 56.2063 119.713 54.7663 117.941 54.7663Z" fill="#F2F2F2"/>
<path d="M155.048 55.7424L151.716 63.2332L148.6 55.7424H145.673L152.292 71.6074H155.246L153.22 66.178L158.173 55.7424H155.048Z" fill="#F2F2F2"/>
<path d="M166.144 55.4031C164.27 55.4031 163.07 56.077 162.627 56.64V55.7447H159.876V67.6244H162.71V60.7661C162.71 59.9538 162.922 59.28 163.356 58.7538C163.79 58.2277 164.39 57.96 165.174 57.96C166.024 57.96 166.642 58.2 167.03 58.68C167.417 59.16 167.611 59.7969 167.611 60.5907V67.6152H170.445V60.1015C170.445 58.7169 170.076 57.5908 169.347 56.7139C168.608 55.8462 167.537 55.4031 166.144 55.4031Z" fill="#F2F2F2"/>
<path d="M183.244 55.9546V55.6148H179.858L175.362 60.532V51.8963H172.596V67.7614H175.362V64.3732L176.8 62.7971L180.24 67.7614H183.653L178.748 60.749L183.244 55.9546Z" fill="#F2F2F2"/>
<path d="M145.31 64.7999C144.526 64.7999 143.898 64.163 143.898 63.3876C143.898 63.3784 143.898 63.3692 143.898 63.3599V58.2647V52.1078H141.092V58.2554V63.6738C141.092 65.8522 142.864 67.6245 145.042 67.6245H146.021H148.439L147.23 64.7907H145.31V64.7999Z" fill="#F2F2F2"/>
<path d="M190.541 64.7999C189.757 64.7999 189.129 64.163 189.129 63.3876C189.129 63.3784 189.129 58.2647 189.129 58.2647H191.354V55.7539H189.129V52.1078H186.563V53.8894C186.563 54.4432 186.406 54.8863 186.101 55.2278C185.797 55.5693 185.335 55.7447 184.735 55.7447H184.126V58.2554H186.323V63.6738C186.323 65.8522 188.095 67.6245 190.274 67.6245H191.252H191.935V64.7907H190.541V64.7999Z" fill="#F2F2F2"/>
<path d="M194.14 53.8247H194.38C194.482 53.8247 194.556 53.797 194.611 53.7509C194.667 53.7047 194.694 53.6401 194.694 53.5478C194.694 53.4647 194.667 53.4001 194.611 53.3447C194.556 53.2986 194.482 53.2709 194.38 53.2709H194.14V53.8247ZM194.657 54.8955L194.288 54.1847H194.15V54.8955H193.725V52.9294H194.454C194.648 52.9294 194.805 52.994 194.934 53.114C195.063 53.234 195.128 53.3817 195.128 53.557C195.128 53.6955 195.091 53.8063 195.017 53.917C194.943 54.0186 194.842 54.0924 194.722 54.1386L195.137 54.8955H194.657ZM193.356 52.9017C193.088 53.1786 192.95 53.5201 192.95 53.9263C192.95 54.3324 193.088 54.6739 193.356 54.9509C193.623 55.2278 193.956 55.3662 194.343 55.3662C194.731 55.3662 195.063 55.2278 195.331 54.9509C195.599 54.6739 195.737 54.3324 195.737 53.9263C195.737 53.5201 195.599 53.1786 195.331 52.9017C195.063 52.6247 194.731 52.4863 194.343 52.4863C193.956 52.4863 193.623 52.6247 193.356 52.9017ZM193.079 55.2093C192.728 54.8585 192.553 54.4247 192.553 53.9263C192.553 53.4278 192.728 53.0032 193.079 52.6432C193.43 52.2924 193.854 52.1171 194.353 52.1171C194.851 52.1171 195.276 52.2924 195.627 52.6524C195.977 53.0032 196.153 53.437 196.153 53.9263C196.153 54.4247 195.977 54.8585 195.627 55.2093C195.276 55.5601 194.851 55.7447 194.353 55.7447C193.845 55.7355 193.43 55.5601 193.079 55.2093Z" fill="#F2F2F2"/>
</svg>
