<svg width="300" height="120" viewBox="0 0 300 120" fill="none" xmlns="http://www.w3.org/2000/svg">
<path d="M125.561 55.3197C127.293 55.3197 128.532 56.0512 129.144 57.1261C129.771 56.0363 131.01 55.3197 132.742 55.3197C135.414 55.3197 137.026 57.0067 137.026 59.7536V66.203H134.981V59.7536C134.981 58.0965 134.175 57.0813 132.637 57.0813C131.07 57.0813 130.174 58.1413 130.174 59.9328V66.203H128.129V59.9029C128.129 58.1114 127.248 57.0515 125.68 57.0515C124.142 57.0515 123.336 58.0517 123.336 59.7238V66.1732H121.291V59.7536C121.306 57.0365 122.859 55.3197 125.561 55.3197Z" fill="#F2F2F2"/>
<path d="M138.952 60.9181C138.952 57.7382 141.192 55.3794 144.297 55.3794C146.984 55.3794 149.403 57.2157 149.328 61.1271H140.684C140.788 63.2172 142.222 64.7847 144.431 64.7847C145.969 64.7847 147.253 64.0233 148.029 62.7394L149.313 63.6949C148.387 65.1281 146.775 66.4419 144.401 66.4419C141.147 66.3971 138.952 64.0383 138.952 60.9181ZM147.536 59.7238C147.178 57.8278 145.879 56.932 144.282 56.932C142.49 56.932 141.192 58.1114 140.803 59.7238H147.536Z" fill="#F2F2F2"/>
<path d="M150.866 60.8883C150.866 57.6337 153.21 55.3794 156.136 55.3794C157.629 55.3794 158.988 55.9766 159.794 57.0216C159.764 56.2901 159.749 55.5287 159.749 54.7524V50.7216H161.57V66.2329H159.913L159.883 64.6206C159.122 65.7552 157.719 66.427 156.136 66.427C153.24 66.3971 150.866 64.113 150.866 60.8883ZM156.33 64.6653C158.271 64.6653 159.883 63.3367 159.883 60.8883C159.883 58.4399 158.301 57.0814 156.33 57.0814C154.27 57.0814 152.702 58.6489 152.702 60.8883C152.732 63.0978 154.27 64.6653 156.33 64.6653Z" fill="#F2F2F2"/>
<path d="M163.107 55.5736H165.153L168.153 63.71L171.154 55.5736H173.095L169.034 66.2031H167.243L163.107 55.5736Z" fill="#F2F2F2"/>
<path d="M173.453 60.9181C173.453 57.7382 175.692 55.3794 178.798 55.3794C181.485 55.3794 183.904 57.2157 183.829 61.1271H175.185C175.289 63.2172 176.723 64.7847 178.932 64.7847C180.47 64.7847 181.754 64.0233 182.53 62.7394L183.814 63.6949C182.888 65.1281 181.276 66.4419 178.902 66.4419C175.678 66.3971 173.453 64.0383 173.453 60.9181ZM182.037 59.7238C181.679 57.8278 180.38 56.932 178.783 56.932C176.991 56.932 175.692 58.1114 175.304 59.7238H182.037Z" fill="#F2F2F2"/>
<path d="M189.173 55.5736H190.352V57.2606H189.322C188.187 57.2606 187.74 57.6935 187.74 58.9028V66.2031H185.903V58.9177C185.903 56.6336 186.978 55.5736 189.173 55.5736Z" fill="#F2F2F2"/>
<path d="M192.04 66.203V64.5608C192.876 64.6653 193.578 64.7101 194.026 64.7101C195.385 64.7101 196.041 64.2622 196.041 63.3814C196.041 62.7245 195.668 62.217 194.683 61.5899L193.981 61.1421C192.593 60.2314 191.966 59.3804 191.966 58.2159C191.966 56.529 193.28 55.469 195.444 55.469C195.892 55.469 196.504 55.5138 197.087 55.5884V57.0515C196.489 57.0067 196.027 56.9768 195.728 56.9768C194.474 56.9768 193.787 57.4098 193.787 58.1562C193.787 58.7086 194.19 59.1565 195.176 59.7984L195.877 60.2463C197.31 61.2018 197.937 62.0826 197.937 63.2918C197.937 65.158 196.534 66.2627 194.116 66.2627C193.608 66.3075 192.817 66.2777 192.04 66.203Z" fill="#F2F2F2"/>
<path d="M199.325 60.9181C199.325 57.7382 201.565 55.3794 204.67 55.3794C207.357 55.3794 209.776 57.2157 209.701 61.1271H201.057C201.161 63.2172 202.595 64.7847 204.804 64.7847C206.342 64.7847 207.626 64.0233 208.402 62.7394L209.686 63.6949C208.76 65.1281 207.148 66.4419 204.774 66.4419C201.505 66.3971 199.325 64.0383 199.325 60.9181ZM207.909 59.7238C207.551 57.8278 206.252 56.932 204.655 56.932C202.863 56.932 201.565 58.1114 201.176 59.7238H207.909Z" fill="#F2F2F2"/>
<path d="M115.303 60.0522V53.4984C115.303 50.1692 112.616 47.4819 109.287 47.4819H96.3133C92.9841 47.4819 90.2969 50.1692 90.2969 53.4984V60.1717V61.7392V66.5016C90.2969 69.8308 92.9841 72.5181 96.3133 72.5181H109.302C112.631 72.5181 115.318 69.8308 115.318 66.5016L115.303 60.0522ZM96.3133 49.3033H109.302C111.616 49.3033 113.512 51.1993 113.512 53.5133V60.0373H108.854L107.794 57.1859C107.615 56.7081 107.167 56.3498 106.629 56.3349C106.092 56.32 105.629 56.5887 105.375 57.0366L102.763 62.1274L99.6724 54.6778C99.4484 54.2 98.9707 53.9015 98.4332 53.9015C97.9107 53.9313 97.433 54.2597 97.2538 54.7375L95.5221 59.9179H92.1182V53.4984C92.1182 51.1993 93.9993 49.3033 96.3133 49.3033ZM109.317 70.6818H96.3282C94.0142 70.6818 92.1182 68.7858 92.1182 66.4718V61.7094H95.537C96.2237 61.7094 96.8209 61.3063 97.1195 60.7091L98.5079 56.6335L101.524 63.8592C101.718 64.307 102.18 64.6206 102.688 64.6355H102.718C103.225 64.6355 103.644 64.3518 103.882 63.9338L106.48 58.9027L107.182 60.8136L107.212 60.8883C107.495 61.4705 108.122 61.8736 108.779 61.8736H113.482V66.5016C113.497 68.8007 111.631 70.6818 109.317 70.6818Z" fill="#F2F2F2"/>
</svg>
