<svg width="300" height="120" viewBox="0 0 300 120" fill="none" xmlns="http://www.w3.org/2000/svg">
<path d="M127.677 47.6107V59.3898C127.677 62.5999 127.637 69.2376 127.637 69.2376L127.399 69.0068C127.399 69.0068 126.819 68.4497 126.528 68.1711C125.921 67.6007 125.328 67.0171 124.721 66.4467C124.14 65.8896 123.559 65.3457 122.992 64.7886C122.385 64.205 121.778 63.6213 121.171 63.0509C120.59 62.4938 120.023 61.9499 119.442 61.3928C118.782 60.7694 118.135 60.1327 117.476 59.5092C116.948 59.0052 116.42 58.5144 115.905 58.0103C115.272 57.4134 114.638 56.8032 114.018 56.193C113.477 55.6624 112.91 55.1318 112.355 54.6013C111.748 54.0176 111.128 53.434 110.521 52.8503C109.954 52.3064 109.386 51.7493 108.805 51.2055C108.159 50.6086 107.525 49.9984 106.905 49.3749C106.351 48.8576 105.11 47.624 105.11 47.624H99.6602V72.3893H102.761C102.748 65.0274 102.841 57.6787 102.788 50.2769C103.131 50.582 119.838 66.0753 120.511 66.6987C121.171 67.3089 121.817 67.9058 122.477 68.516C123.111 69.0997 123.744 69.67 124.377 70.2537C125.064 70.8904 126.708 72.3893 126.708 72.3893H130.699V47.6107H127.677Z" fill="#F2F2F2"/>
<path d="M161.737 47.6108H139.306V50.2191H161.737V47.6108Z" fill="#F2F2F2"/>
<path d="M161.737 58.3047H139.306V60.913H161.737V58.3047Z" fill="#F2F2F2"/>
<path d="M161.737 69.5203H139.306V72.3894H161.737V69.5203Z" fill="#F2F2F2"/>
<path d="M200.339 72.3894H196.07L168.519 47.6108H172.788L200.339 72.3894Z" fill="#F2F2F2"/>
<path d="M168.519 72.3894H172.788L200.339 47.6108H196.07L168.519 72.3894Z" fill="#F2F2F2"/>
</svg>
