<svg width="300" height="120" viewBox="0 0 300 120" fill="none" xmlns="http://www.w3.org/2000/svg">
<path d="M150.666 65.9516C153.883 62.7352 153.883 57.5136 150.666 54.2972C147.45 51.0808 142.235 51.0808 139.012 54.3039C135.796 57.5203 135.796 62.742 139.012 65.9584C142.235 69.1748 147.45 69.1748 150.666 65.9516ZM141.549 56.834C143.366 55.0172 146.313 55.0172 148.136 56.834C149.96 58.6508 149.953 61.598 148.136 63.4216C146.319 65.2384 143.372 65.2384 141.549 63.4216C139.725 61.6048 139.732 58.6508 141.549 56.834Z" fill="#F2F2F2"/>
<path d="M104.116 56.4639H104.068L101.363 67.829H97.1713L92.8379 51.8883H96.8147L99.56 63.1861H99.6273L102.305 51.8883H106.101L108.785 63.1861H108.832L111.598 51.8883H115.373L111.019 67.8358H106.841L104.116 56.4639Z" fill="#F2F2F2"/>
<path d="M116.275 51.8883H120.138V67.8358H116.275V51.8883Z" fill="#F2F2F2"/>
<path d="M122.264 67.829V51.8883H129.679C133.561 51.8883 135.89 53.6715 135.89 57.1166C135.89 59.4852 134.504 60.9992 132.741 61.7192L136.401 67.8358H132.249L129.033 62.3181H126.039V67.8358H122.264V67.829ZM129.188 59.3439C131.22 59.3439 132.088 58.5835 132.088 57.1099C132.088 55.6363 131.22 54.8557 129.188 54.8557H126.039V59.3439H129.188Z" fill="#F2F2F2"/>
<path d="M177.79 61.4904L175.778 63.6571V67.8358H171.916V51.8883H175.778V59.3708L182.279 51.8883H186.632L180.334 58.7249L187.392 67.8358H182.723L177.79 61.4904Z" fill="#F2F2F2"/>
<path d="M190.723 62.9169C190.905 64.7472 192.553 65.3259 194.229 65.3259C195.79 65.3259 197.109 64.7001 197.109 63.3812C197.109 62.3786 196.463 61.9076 194.72 61.6183L191.907 61.1069C189.404 60.6628 187.486 59.4314 187.486 56.5985C187.486 53.584 190.212 51.6191 193.852 51.6191C197.963 51.6191 200.305 53.4292 200.621 56.511H196.981C196.846 55.1249 195.642 54.3914 193.899 54.3914C192.311 54.3914 191.261 55.172 191.261 56.3092C191.261 57.4262 192.042 57.7155 193.563 58.0049L196.597 58.5835C199.37 59.0747 200.911 60.5013 200.911 63.1188C200.911 66.2006 198.051 68.0982 194.37 68.0982C190.286 68.0982 187.338 66.4227 187.002 62.9169H190.723Z" fill="#F2F2F2"/>
<path d="M207.161 54.0281C207.161 55.2393 206.206 56.1948 204.968 56.1948C203.743 56.1948 202.761 55.2393 202.761 54.0281C202.761 52.8438 203.736 51.8883 204.968 51.8883C206.206 51.8883 207.161 52.8371 207.161 54.0281ZM203.313 54.0281C203.313 54.9836 204.019 55.7372 204.981 55.7372C205.923 55.7372 206.61 54.9836 206.61 54.0415C206.61 53.086 205.917 52.319 204.968 52.319C204.019 52.319 203.313 53.086 203.313 54.0281ZM204.631 55.1518H204.133V53.012C204.329 52.9717 204.604 52.9447 204.954 52.9447C205.358 52.9447 205.54 53.012 205.701 53.0995C205.816 53.1937 205.91 53.3619 205.91 53.5705C205.91 53.806 205.728 53.9877 205.466 54.0685V54.0954C205.674 54.1761 205.789 54.3309 205.856 54.6202C205.923 54.9432 205.957 55.0778 206.011 55.1518H205.472C205.405 55.0711 205.365 54.8759 205.304 54.627C205.264 54.3915 205.136 54.2905 204.86 54.2905H204.625V55.1518H204.631ZM204.645 53.9339H204.88C205.156 53.9339 205.378 53.8397 205.378 53.6176C205.378 53.4225 205.237 53.2946 204.921 53.2946C204.793 53.2946 204.699 53.3081 204.645 53.3216V53.9339Z" fill="#F2F2F2"/>
<path d="M162.301 64.976C159.622 64.976 157.456 62.8093 157.456 60.1312C157.456 57.4531 159.622 55.2864 162.301 55.2864V51.895C157.752 51.895 154.058 55.5824 154.058 60.1379C154.058 64.6866 157.745 68.3808 162.301 68.3808C166.849 68.3808 170.543 64.6934 170.543 60.1379H167.152C167.145 62.8025 164.979 64.976 162.301 64.976Z" fill="#F2F2F2"/>
</svg>
